<svg width="20" height="12" viewBox="0 0 20 12" fill="none" xmlns="http://www.w3.org/2000/svg">
<path d="M18.9951 5.17628L14.3284 0.509611C14.2196 0.400833 14.0905 0.314545 13.9484 0.255675C13.8062 0.196804 13.6539 0.166504 13.5001 0.166504C13.3462 0.166504 13.1939 0.196804 13.0518 0.255675C12.9097 0.314545 12.7805 0.400833 12.6717 0.509611C12.563 0.618389 12.4767 0.747528 12.4178 0.889654C12.3589 1.03178 12.3286 1.18411 12.3286 1.33794C12.3286 1.49178 12.3589 1.64411 12.4178 1.78624C12.4767 1.92836 12.563 2.0575 12.6717 2.16628L15.3551 4.83794H1.83341C1.524 4.83794 1.22725 4.96086 1.00846 5.17965C0.789664 5.39845 0.666748 5.69519 0.666748 6.00461C0.666748 6.31403 0.789664 6.61078 1.00846 6.82957C1.22725 7.04836 1.524 7.17128 1.83341 7.17128H15.3551L12.6717 9.84294C12.5624 9.9514 12.4756 10.0804 12.4164 10.2226C12.3571 10.3648 12.3266 10.5173 12.3266 10.6713C12.3266 10.8253 12.3571 10.9778 12.4164 11.1199C12.4756 11.2621 12.5624 11.3912 12.6717 11.4996C12.7802 11.609 12.9092 11.6958 13.0514 11.755C13.1936 11.8142 13.3461 11.8447 13.5001 11.8447C13.6541 11.8447 13.8066 11.8142 13.9488 11.755C14.0909 11.6958 14.22 11.609 14.3284 11.4996L18.9951 6.83294C19.1013 6.72199 19.1846 6.59115 19.2401 6.44794C19.3568 6.16391 19.3568 5.84532 19.2401 5.56128C19.1846 5.41807 19.1013 5.28723 18.9951 5.17628Z" fill="white"/>
</svg>
