<svg width="20" height="20" viewBox="0 0 20 20" fill="none" xmlns="http://www.w3.org/2000/svg">
<path d="M9.86283 4.71167C7.11081 4.71167 4.83057 6.9526 4.83057 9.74393C4.83057 12.5353 7.07149 14.7762 9.86283 14.7762C12.6542 14.7762 14.8951 12.4959 14.8951 9.74393C14.8951 6.99191 12.6148 4.71167 9.86283 4.71167ZM9.86283 12.9677C8.09367 12.9677 6.63903 11.5131 6.63903 9.74393C6.63903 7.97478 8.09367 6.52014 9.86283 6.52014C11.632 6.52014 13.0866 7.97478 13.0866 9.74393C13.0866 11.5131 11.632 12.9677 9.86283 12.9677Z" fill="white"/>
<path d="M15.0918 5.73385C15.7215 5.73385 16.2319 5.22341 16.2319 4.59373C16.2319 3.96406 15.7215 3.45361 15.0918 3.45361C14.4621 3.45361 13.9517 3.96406 13.9517 4.59373C13.9517 5.22341 14.4621 5.73385 15.0918 5.73385Z" fill="white"/>
<path d="M18.0402 1.6451C17.018 0.583606 15.5634 0.0332031 13.9122 0.0332031H5.8134C2.39303 0.0332031 0.112793 2.31344 0.112793 5.73381V13.7933C0.112793 15.4838 0.663196 16.9384 1.764 17.9999C2.82549 19.0221 4.24082 19.5332 5.85271 19.5332H13.8729C15.5634 19.5332 16.9787 18.9828 18.0009 17.9999C19.0624 16.9778 19.6128 15.5231 19.6128 13.8326V5.73381C19.6128 4.0826 19.0624 2.66728 18.0402 1.6451ZM17.883 13.8326C17.883 15.0513 17.4505 16.0342 16.7428 16.7026C16.0352 17.3709 15.0523 17.7247 13.8729 17.7247H5.85271C4.67328 17.7247 3.69041 17.3709 2.98275 16.7026C2.27509 15.9949 1.92126 15.012 1.92126 13.7933V5.73381C1.92126 4.55437 2.27509 3.57151 2.98275 2.86385C3.6511 2.1955 4.67328 1.84167 5.85271 1.84167H13.9515C15.1309 1.84167 16.1138 2.1955 16.8215 2.90316C17.4898 3.61082 17.883 4.59369 17.883 5.73381V13.8326Z" fill="white"/>
</svg>
