<svg width="40" height="41" viewBox="0 0 40 41" fill="none" xmlns="http://www.w3.org/2000/svg">
<path d="M20 4.60083C11.1634 4.60083 4 11.7643 4 20.6008C4 29.4374 11.1634 36.6008 20 36.6008C28.8366 36.6008 36 29.4374 36 20.6008C36 11.7643 28.8366 4.60083 20 4.60083ZM0 20.6008C0 9.55513 8.9543 0.60083 20 0.60083C31.0457 0.60083 40 9.55513 40 20.6008C40 31.6465 31.0457 40.6008 20 40.6008C8.9543 40.6008 0 31.6465 0 20.6008ZM11.5858 12.1866C12.3668 11.4056 13.6332 11.4056 14.4142 12.1866L20 17.7724L25.5858 12.1866C26.3668 11.4056 27.6332 11.4056 28.4142 12.1866C29.1953 12.9677 29.1953 14.234 28.4142 15.015L22.8284 20.6008L28.4142 26.1866C29.1953 26.9677 29.1953 28.234 28.4142 29.015C27.6332 29.7961 26.3668 29.7961 25.5858 29.015L20 23.4293L14.4142 29.015C13.6332 29.7961 12.3668 29.7961 11.5858 29.015C10.8047 28.234 10.8047 26.9677 11.5858 26.1866L17.1716 20.6008L11.5858 15.015C10.8047 14.234 10.8047 12.9677 11.5858 12.1866Z" fill="white"/>
</svg>
