<svg width="28" height="26" viewBox="0 0 28 26" fill="none" xmlns="http://www.w3.org/2000/svg">
<path d="M26.3071 14.8133V3.11959C26.3071 2.75302 26.0639 2.43097 25.7113 2.33062C18.0199 0.141748 9.88898 0.141748 2.19751 2.33062C1.84494 2.43097 1.60169 2.75302 1.60169 3.11959V14.9261C0.599594 16.1868 0 17.7811 0 19.5131V24.4908C0 24.9438 0.367281 25.3111 0.820312 25.3111C1.27334 25.3111 1.64062 24.9438 1.64062 24.4908V23.6154H26.3594V24.4908C26.3594 24.9438 26.7267 25.3111 27.1797 25.3111C27.6327 25.3111 28 24.9438 28 24.4908V19.5131C28 17.7291 27.3641 16.091 26.3071 14.8133ZM7.38413 13.7695H20.6158C23.4995 13.7695 25.8934 15.9059 26.2986 18.6791H1.70138C2.10656 15.9059 4.5004 13.7695 7.38413 13.7695ZM11.5387 12.1288C7.39178 12.1409 7.27973 12.0997 6.61549 12.1687V9.12012C6.61549 8.96924 6.73827 8.84647 6.88915 8.84647H11.2651C11.416 8.84647 11.5388 8.96924 11.5388 9.12012V12.1288H11.5387ZM21.379 12.1681C20.7188 12.1 20.5764 12.1406 16.4559 12.1288V9.12012C16.4559 8.96924 16.5786 8.84647 16.7295 8.84647H21.1054C21.2563 8.84647 21.3791 8.96924 21.3791 9.12012V12.1681H21.379ZM24.6665 3.7438V13.3422C24.1577 13.007 23.6053 12.733 23.0197 12.5308V9.12012C23.0197 8.0646 22.1609 7.20584 21.1054 7.20584H16.7295C15.6739 7.20584 14.8152 8.0646 14.8152 9.12012V12.1288H13.1794V9.12012C13.1794 8.0646 12.3206 7.20584 11.265 7.20584H6.88909C5.83357 7.20584 4.97481 8.0646 4.97481 9.12012V12.5328C4.35613 12.7469 3.77448 13.0409 3.24231 13.4028V3.7438C10.2644 1.85812 17.6443 1.85812 24.6665 3.7438ZM1.64062 21.9748V20.3197H26.3594V21.9748H1.64062Z" fill="#272727"/>
</svg>
