<svg width="28" height="18" viewBox="0 0 28 18" fill="none" xmlns="http://www.w3.org/2000/svg">
<path d="M26.3588 5.7835V3.74327C26.3588 1.96757 24.9141 0.522949 23.1384 0.522949H16.4C15.4472 0.522949 14.5901 0.93923 14 1.59903C13.4099 0.93923 12.5527 0.522949 11.6 0.522949H4.8615C3.0858 0.522949 1.64117 1.96757 1.64117 3.74327V5.7835C0.686109 6.12218 0 7.0342 0 8.10394V16.1093H1.64123V17.4773H3.28185V16.1093H24.7182V17.4773H26.3588V16.1093H28V8.10394C28 7.0342 27.3139 6.12218 26.3588 5.7835ZM14.8203 6.53594V3.74327C14.8203 2.87221 15.529 2.16357 16.4 2.16357H23.1384C24.0095 2.16357 24.7181 2.87221 24.7181 3.74327V5.7835C23.7631 6.12218 23.077 7.0342 23.077 8.10394V10.0922H14.8203V6.53594ZM3.28185 3.74327C3.28185 2.87221 3.99049 2.16357 4.8615 2.16357H11.5999C12.471 2.16357 13.1796 2.87221 13.1796 3.74327V6.53594V10.0922H4.92302V8.10394C4.92302 7.0342 4.23691 6.12218 3.28185 5.7835V3.74327ZM26.3594 14.4687H1.64062V8.10394C1.64062 7.65129 2.00889 7.28303 2.46154 7.28303C2.91419 7.28303 3.2824 7.65129 3.2824 8.10394V11.7328H24.7176V8.10394C24.7176 7.65129 25.0858 7.28303 25.5385 7.28303C25.9911 7.28303 26.3594 7.65129 26.3594 8.10394V14.4687Z" fill="#272727"/>
</svg>
