<svg width="24" height="28" viewBox="0 0 24 28" fill="none" xmlns="http://www.w3.org/2000/svg">
<path d="M21.2969 26.1953H2.70312C1.34616 26.1953 0.242188 25.0913 0.242188 23.7344V2.46094C0.242188 1.10398 1.34616 0 2.70312 0H21.2969C22.6538 0 23.7578 1.10398 23.7578 2.46094V23.7344C23.7578 25.0913 22.6538 26.1953 21.2969 26.1953ZM2.70312 1.64062C2.2508 1.64062 1.88281 2.00862 1.88281 2.46094V23.7344C1.88281 24.1867 2.2508 24.5547 2.70312 24.5547H21.2969C21.7492 24.5547 22.1172 24.1867 22.1172 23.7344V2.46094C22.1172 2.00862 21.7492 1.64062 21.2969 1.64062H2.70312Z" fill="#222221"/>
<path d="M5 28C4.54697 28 4.17969 27.6327 4.17969 27.1797V25.375C4.17969 24.922 4.54697 24.5547 5 24.5547C5.45303 24.5547 5.82031 24.922 5.82031 25.375V27.1797C5.82031 27.6327 5.45303 28 5 28Z" fill="#222221"/>
<path d="M19 28C18.547 28 18.1797 27.6327 18.1797 27.1797V25.375C18.1797 24.922 18.547 24.5547 19 24.5547C19.453 24.5547 19.8203 24.922 19.8203 25.375V27.1797C19.8203 27.6327 19.453 28 19 28Z" fill="#222221"/>
<path d="M12 26.1953C11.547 26.1953 11.1797 25.828 11.1797 25.375V0.820312C11.1797 0.367281 11.547 0 12 0C12.453 0 12.8203 0.367281 12.8203 0.820312V25.375C12.8203 25.828 12.453 26.1953 12 26.1953Z" fill="#222221"/>
<path d="M22.9375 19.1953H12C11.547 19.1953 11.1797 18.828 11.1797 18.375C11.1797 17.922 11.547 17.5547 12 17.5547H22.9375C23.3905 17.5547 23.7578 17.922 23.7578 18.375C23.7578 18.828 23.3905 19.1953 22.9375 19.1953Z" fill="#222221"/>
<path d="M18.125 22.75H16.8125C16.3595 22.75 15.9922 22.3827 15.9922 21.9297C15.9922 21.4767 16.3595 21.1094 16.8125 21.1094H18.125C18.578 21.1094 18.9453 21.4767 18.9453 21.9297C18.9453 22.3827 18.578 22.75 18.125 22.75Z" fill="#222221"/>
<path d="M8.5 13.9453C8.04697 13.9453 7.67969 13.578 7.67969 13.125V11.8125C7.67969 11.3595 8.04697 10.9922 8.5 10.9922C8.95303 10.9922 9.32031 11.3595 9.32031 11.8125V13.125C9.32031 13.578 8.95303 13.9453 8.5 13.9453Z" fill="#222221"/>
<path d="M15.5 13.9453C15.047 13.9453 14.6797 13.578 14.6797 13.125V11.8125C14.6797 11.3595 15.047 10.9922 15.5 10.9922C15.953 10.9922 16.3203 11.3595 16.3203 11.8125V13.125C16.3203 13.578 15.953 13.9453 15.5 13.9453Z" fill="#222221"/>
</svg>
