<svg width="28" height="28" viewBox="0 0 28 28" fill="none" xmlns="http://www.w3.org/2000/svg">
<path d="M28 15.8594C28 14.5024 26.896 13.3984 25.5391 13.3984H22.8823C22.5437 12.4436 21.6319 11.7578 20.5625 11.7578H17.2812C16.2118 11.7578 15.3 12.4436 14.9614 13.3984H3.33594V4.10156C3.33594 2.7446 4.43991 1.64062 5.79688 1.64062H7.4375C8.54634 1.64062 9.48593 2.37798 9.79256 3.388C7.97579 3.80915 6.61719 5.43977 6.61719 7.38281V8.20312H14.8203V7.38281C14.8203 5.37753 13.3734 3.70491 11.4691 3.35125C11.1154 1.44687 9.44278 0 7.4375 0H5.79688C3.53527 0 1.69531 1.83996 1.69531 4.10156V13.521C0.712195 13.8438 0 14.7697 0 15.8594C0 16.949 0.712195 17.875 1.69531 18.1978V20.7812C1.69531 22.9277 2.87935 24.8025 4.62837 25.7878L3.57623 26.8399L4.73627 28L6.32193 26.4143C6.68298 26.4856 7.05589 26.5234 7.4375 26.5234H20.5625C20.9441 26.5234 21.317 26.4856 21.6781 26.4143L23.2637 28L24.4238 26.8399L23.3717 25.7878C25.1206 24.8025 26.3047 22.9277 26.3047 20.7812V18.1978C27.2878 17.875 28 16.9491 28 15.8594ZM13.0391 6.5625H8.39836C8.73693 5.6076 9.64928 4.92188 10.7188 4.92188C11.7882 4.92188 12.7006 5.6076 13.0391 6.5625ZM16.4609 14.2188C16.4609 13.7664 16.8289 13.3984 17.2812 13.3984H20.5625C21.0148 13.3984 21.3828 13.7664 21.3828 14.2188V18.3203H16.4609V14.2188ZM2.46094 15.0391H14.8203V16.6797H2.46094C2.00862 16.6797 1.64062 16.3117 1.64062 15.8594C1.64062 15.4071 2.00862 15.0391 2.46094 15.0391ZM20.5625 24.8828H7.4375C5.1759 24.8828 3.33594 23.0429 3.33594 20.7812V18.3203H14.8203V19.9609H23.0234V18.3203H24.6641V20.7812C24.6641 23.0429 22.8241 24.8828 20.5625 24.8828ZM25.5391 16.6797H23.0234V15.0391H25.5391C25.9914 15.0391 26.3594 15.4071 26.3594 15.8594C26.3594 16.3117 25.9914 16.6797 25.5391 16.6797Z" fill="#272727"/>
</svg>
