<svg width="28" height="22" viewBox="0 0 28 22" fill="none" xmlns="http://www.w3.org/2000/svg">
<path d="M26.5299 15.912L14.8203 9.1263V8.62143C14.8203 8.04568 15.1489 7.51012 15.6778 7.22378C16.8695 6.57874 17.5778 5.3363 17.5264 3.98136C17.4569 2.14982 15.9679 0.660574 14.1367 0.591066C13.1678 0.553879 12.2502 0.90366 11.5529 1.57484C10.8552 2.24651 10.471 3.14973 10.471 4.11803C10.471 4.57106 10.8382 4.93834 11.2913 4.93834C11.7443 4.93834 12.1116 4.57106 12.1116 4.11803C12.1116 3.5997 12.3173 3.11631 12.6907 2.75674C13.0638 2.39767 13.5546 2.21025 14.0744 2.23049C15.0536 2.26767 15.8498 3.06409 15.887 4.0436C15.9146 4.76968 15.5351 5.43539 14.8969 5.78096C13.8377 6.3543 13.1797 7.44269 13.1797 8.62143V9.1263L1.47005 15.912C0.563281 16.4375 0 17.4151 0 18.4632C0 20.089 1.32245 21.4116 2.94798 21.4116H25.052C26.6775 21.4116 28 20.0889 28 18.4631C28 17.415 27.4367 16.4375 26.5299 15.912ZM25.052 19.771H2.94798C2.22709 19.771 1.64062 19.1843 1.64062 18.4631C1.64062 17.9982 1.89044 17.5646 2.29266 17.3316L14 10.5472L25.7073 17.3316C26.1095 17.5646 26.3594 17.9982 26.3594 18.4632C26.3594 19.1843 25.7729 19.771 25.052 19.771Z" fill="black"/>
</svg>
