<svg width="22" height="28" viewBox="0 0 22 28" fill="none" xmlns="http://www.w3.org/2000/svg">
<path d="M21.6641 17.3359V15.6953C21.6641 14.3384 20.5601 13.2344 19.2031 13.2344H9.35938C9.07177 13.2344 8.79582 13.2844 8.53906 13.3755V4.78078C9.49385 4.44216 10.1797 3.53035 10.1797 2.46094C10.1797 1.10398 9.07571 0 7.71875 0H1.15625C0.703219 0 0.335938 0.367281 0.335938 0.820312C0.335938 2.3357 0.335938 14.2945 0.335938 15.6953C0.335938 16.7647 1.02177 17.6765 1.97656 18.0152V20.6172C1.97656 22.1221 2.5702 23.5663 3.61719 24.6357V27.1797C3.61719 27.6327 3.98447 28 4.4375 28C5.38523 28 18.3744 28 19.2031 28C19.6562 28 20.0234 27.6327 20.0234 27.1797C20.0234 26.7267 19.6562 26.3594 19.2031 26.3594H16.7422V25.3755C19.7493 23.8406 21.6641 20.742 21.6641 17.3359ZM9.35938 14.875H19.2031C19.6554 14.875 20.0234 15.243 20.0234 15.6953V16.5156H8.53906V15.6953C8.53906 15.243 8.90705 14.875 9.35938 14.875ZM1.97656 1.64062H7.71875C8.17107 1.64062 8.53906 2.00862 8.53906 2.46094C8.53906 2.91326 8.17107 3.28125 7.71875 3.28125H1.97656V1.64062ZM2.79688 16.5156C2.34455 16.5156 1.97656 16.1476 1.97656 15.6953V4.92188H6.89844C6.89844 5.87289 6.89844 15.8742 6.89844 16.5156H2.79688ZM15.5934 24.1048C15.2947 24.2353 15.1016 24.5304 15.1016 24.8565V26.3594H5.25781V24.2858C5.25781 24.0524 5.15845 23.8301 4.98459 23.6745C4.11555 22.8968 3.61719 21.7824 3.61719 20.6172V18.1508C5.50582 18.1508 19.8345 18.1508 19.9779 18.1508C19.6879 20.7535 18.0314 23.0396 15.5934 24.1048Z" fill="#272727"/>
</svg>
