<svg width="46" height="46" viewBox="0 0 46 46" fill="none" xmlns="http://www.w3.org/2000/svg">
<path d="M45.0852 8.17537C44.9167 7.75014 44.5454 7.43829 44.0976 7.34575C43.6491 7.25303 43.185 7.39211 42.8617 7.71555L35.8544 14.7228L32.0871 13.9128L31.2771 10.1455L38.2844 3.1381C38.6078 2.81466 38.7467 2.35017 38.6542 1.9023C38.5616 1.45433 38.2497 1.08319 37.8246 0.914464C33.0137 -0.993279 27.5409 0.137854 23.882 3.79647C22.1207 5.55777 20.9112 7.7699 20.3844 10.1939C19.9337 12.2677 19.997 14.4103 20.5633 16.442L1.86282 35.1425C0.661519 36.3437 0 37.9409 0 39.6397C0 41.3386 0.66152 42.9357 1.86291 44.137C3.06412 45.3383 4.66127 45.9999 6.36013 45.9999C8.0589 45.9999 9.65614 45.3383 10.8573 44.137L29.5579 25.4366C31.5895 26.0029 33.7321 26.0661 35.8059 25.6154C38.2299 25.0885 40.4421 23.879 42.2034 22.1178C45.8619 18.4591 46.993 12.9864 45.0852 8.17537ZM40.2818 20.1964C37.5106 22.9676 33.33 23.9161 29.6308 22.6123C29.1376 22.4385 28.5885 22.5632 28.2186 22.933L8.93586 42.2156C8.24784 42.9038 7.33296 43.2827 6.35995 43.2827C5.38685 43.2827 4.47215 42.9038 3.78404 42.2156C3.09602 41.5275 2.71705 40.6127 2.71705 39.6397C2.71705 38.6667 3.09602 37.7519 3.78413 37.0638L23.0668 17.7812C23.4366 17.4114 23.5613 16.8622 23.3875 16.3689C22.0838 12.67 23.0321 8.48919 25.8033 5.71796C27.7619 3.75937 30.3781 2.71736 33.0444 2.71736C33.6037 2.71736 34.1655 2.76318 34.7235 2.85617L28.8325 8.74722C28.5063 9.07327 28.3679 9.54252 28.4648 9.99345L29.6147 15.3421C29.7271 15.8645 30.1351 16.2724 30.6574 16.3848L36.0061 17.5348C36.4573 17.6317 36.9262 17.4932 37.2525 17.1671L43.1434 11.2761C43.6793 14.4945 42.6512 17.8269 40.2818 20.1964Z" fill="#6EA4AC"/>
</svg>
