<svg width="26" height="26" viewBox="0 0 26 26" fill="none" xmlns="http://www.w3.org/2000/svg">
<path d="M17.8696 15.2736L17.8615 15.3461C15.8999 14.2866 15.6947 14.1454 15.4414 14.5573C15.2656 14.8425 14.7536 15.4892 14.5992 15.6807C14.4431 15.8692 14.2879 15.8837 14.023 15.7532C13.7553 15.6081 12.8963 15.3036 11.8793 14.3175C11.0872 13.5489 10.5555 12.6063 10.3985 12.3163C10.1371 11.8271 10.684 11.7575 11.1817 10.7365C11.2709 10.5335 11.2254 10.374 11.1594 10.2299C11.0925 10.0849 10.56 8.66376 10.3369 8.09722C10.1228 7.53262 9.9025 7.60416 9.73746 7.60416C9.22363 7.55582 8.84807 7.56356 8.51711 7.93674C7.07731 9.65181 7.44039 11.421 8.67233 13.3024C11.0934 16.7364 12.3833 17.3687 14.742 18.2465C15.3789 18.466 15.9596 18.435 16.4191 18.3635C16.9311 18.2755 17.9954 17.6664 18.2175 16.9848C18.445 16.3033 18.445 15.7377 18.378 15.6072C18.312 15.4767 18.1372 15.4042 17.8696 15.2736Z" fill="white"/>
<path d="M20.6915 5.28076C13.75 -1.42946 2.2622 3.43732 2.25768 12.9037C2.25768 14.7959 2.75331 16.6411 3.69762 18.2706L2.1665 23.8334L7.8856 22.3421C15.0221 26.1968 23.8296 21.0782 23.8332 12.9091C23.8332 10.0419 22.7137 7.34357 20.678 5.31597L20.6915 5.28076ZM22.0294 12.8793C22.024 19.7701 14.4596 24.0736 8.47692 20.5564L8.15192 20.3632L4.7665 21.2434L5.6738 17.9528L5.45803 17.6143C1.73498 11.6877 6.01234 3.94197 13.0648 3.94197C15.4608 3.94197 17.7096 4.87633 19.4032 6.569C21.096 8.24724 22.0294 10.496 22.0294 12.8793Z" fill="white"/>
</svg>
