<svg width="138" height="18" viewBox="0 0 138 18" fill="none" xmlns="http://www.w3.org/2000/svg">
<path d="M59.9117 11.7542H68.9742L64.1823 4.04474L55.3875 17.9838H51.3848L62.0822 1.24002C62.5473 0.563504 63.3225 0.154785 64.1823 0.154785C65.0138 0.154785 65.7889 0.549418 66.24 1.21184L76.9797 17.9838H72.977L71.0884 14.869H61.9131L59.9117 11.7542ZM101.489 14.869V0.323914H98.0926V16.2925C98.0926 16.7294 98.2618 17.1522 98.5859 17.4764C98.91 17.8006 99.347 17.9838 99.8262 17.9838H115.316L117.317 14.869H101.489ZM45.2962 12.2616C48.5942 12.2616 51.2721 9.59782 51.2721 6.2998C51.2721 3.00179 48.5942 0.323914 45.2962 0.323914H30.4367V17.9838H33.832V3.43871H45.0706C46.6492 3.43871 47.9177 4.72126 47.9177 6.2998C47.9177 7.87834 46.6492 9.1609 45.0706 9.1609L35.4952 9.1468L45.6344 17.9838H50.5674L43.7459 12.2616H45.2962ZM9.53529 17.9838C4.66009 17.9838 0.703857 14.0375 0.703857 9.1609C0.703857 4.28435 4.66009 0.323914 9.53529 0.323914H19.7999C24.6765 0.323914 28.6299 4.28435 28.6299 9.1609C28.6299 14.0375 24.6765 17.9838 19.7999 17.9838H9.53529ZM19.5716 14.869C22.7301 14.869 25.2882 12.318 25.2882 9.1609C25.2882 6.00383 22.7301 3.43871 19.5716 3.43871H9.76216C6.60508 3.43871 4.04554 6.00383 4.04554 9.1609C4.04554 12.318 6.60508 14.869 9.76216 14.869H19.5716ZM84.069 17.9838C79.1924 17.9838 75.232 14.0375 75.232 9.1609C75.232 4.28435 79.1924 0.323914 84.069 0.323914H96.2603L94.2731 3.43871H84.2945C81.1374 3.43871 78.5723 6.00383 78.5723 9.1609C78.5723 12.318 81.1374 14.869 84.2945 14.869H96.5422L94.5409 17.9838H84.069ZM125.604 14.869C122.997 14.869 120.784 13.1213 120.108 10.7112H134.624L136.626 7.59645H120.108C120.784 5.20046 122.997 3.43871 125.604 3.43871H135.569L137.584 0.323914H125.379C120.502 0.323914 116.542 4.28435 116.542 9.1609C116.542 14.0375 120.502 17.9838 125.379 17.9838H135.851L137.852 14.869H125.604Z" fill="#EA1B22"/>
</svg>
