<svg width="75" height="30" viewBox="0 0 75 30" fill="none" xmlns="http://www.w3.org/2000/svg">
<g clip-path="url(#clip0_44_11341)">
<path d="M12.3075 5.04932C5.5125 5.04932 0 10.6387 0 17.5284C0 24.4181 5.5125 30.0075 12.3075 30.0075C19.1025 30.0075 24.615 24.4181 24.615 17.5284C24.615 10.6387 19.1025 5.04932 12.3075 5.04932ZM12.3075 28.9505C6.0825 28.9505 1.035 23.8326 1.035 17.5284C1.035 11.2242 6.0825 6.09875 12.3075 6.09875C18.5325 6.09875 23.58 11.2166 23.58 17.5208C23.58 23.825 18.5325 28.9505 12.3075 28.9505Z" fill="white"/>
<path d="M19.725 11.7189L13.4925 17.4984L11.475 19.3615L8.955 21.6961L6.9225 23.582L6.66 23.8253L5.835 24.5858C5.175 23.9774 4.5975 23.2702 4.125 22.4869L4.9275 21.7341L6.66 20.1143L6.9675 19.8253L9.4725 17.4907L11.49 15.6048L17.76 9.7417C18.5025 10.312 19.1625 10.966 19.725 11.7189Z" fill="#FABF5D"/>
<path d="M14.205 8.13699L8.81996 13.1256L6.78746 15.0115L6.65996 15.1256L4.28246 17.3233L2.81996 18.6769C2.78246 18.3879 2.75996 18.0914 2.75246 17.7948C2.72246 16.7149 2.86496 15.6731 3.15746 14.6921L4.79996 13.1636L6.65996 11.4222L6.83246 11.2625L10.185 8.12938C10.74 8.00771 11.31 7.93167 11.895 7.91646C12.69 7.90125 13.4625 7.97729 14.205 8.13699Z" fill="#FABF5D"/>
<path d="M6.96 19.8403L6.6525 20.1293L4.92 21.749L3.075 20.0304C2.955 19.5969 2.8725 19.1483 2.8125 18.692L4.275 17.3384L6.6525 19.5589L6.96 19.8403Z" fill="white"/>
<path d="M14.4299 26.8063C13.8074 26.9584 13.1624 27.0497 12.4949 27.0725C11.8274 27.0953 11.1674 27.0421 10.5374 26.928L6.92236 23.5744L8.95486 21.6885L14.4299 26.8063Z" fill="white"/>
<path d="M6.83243 11.2701L6.65993 11.4298L4.79993 13.1712L4.11743 12.5401C4.59743 11.734 5.18993 11.0039 5.87993 10.3804L6.65993 11.1104L6.83243 11.2701Z" fill="white"/>
<path d="M11.4825 15.6198L9.46503 17.4981L6.78003 15.0114L8.82003 13.1255L11.4825 15.6198Z" fill="white"/>
<path d="M19.71 23.3004C19.1625 24.0228 18.5175 24.6692 17.79 25.2091L11.4675 19.3536L13.485 17.4829L19.71 23.3004Z" fill="white"/>
<path d="M38.595 6.40283H43.3275L36.2175 15.4675L43.5375 24.5549H38.2875L32.2275 16.8211V24.5549H28.1775V6.40283H32.2275V14.8591L38.595 6.40283Z" fill="white"/>
<path d="M44.5576 6.40283H57.6526V10.1139H48.6076V13.5283H56.9701V17.1329H48.6076V20.8439H57.6751V24.5549H44.5576V6.40283Z" fill="white"/>
<path d="M63.3676 13.0568V24.5549H59.4751V6.40283H63.8926L71.1076 17.9313V6.40283H75.0001V24.5549H70.5826L63.3676 13.0568Z" fill="white"/>
<path d="M71.7749 1.66524L68.0249 5.46753C68.0174 5.47513 68.0099 5.47513 68.0099 5.46753L66.3899 3.82494C66.3824 3.81733 66.3824 3.80973 66.3899 3.80973L70.1474 -0.000155952C70.1549 -0.00776052 70.1624 -0.00776052 70.1624 -0.000155952L71.7749 1.64243C71.7824 1.65003 71.7824 1.65764 71.7749 1.66524Z" fill="white"/>
</g>
<defs>
<clipPath id="clip0_44_11341">
<rect width="75" height="30" fill="white"/>
</clipPath>
</defs>
</svg>
